<?xml version="1.0" encoding="UTF-8" standalone="no"?>
<svg
   height="48px"
   viewBox="0 -960 960 960"
   width="48px"
   fill="#e8eaed"
   version="1.1"
   id="svg1"
   sodipodi:docname="icon.svg"
   xml:space="preserve"
   inkscape:version="1.3.2 (091e20e, 2023-11-25, custom)"
   inkscape:export-filename="icon.png"
   inkscape:export-xdpi="819.20001"
   inkscape:export-ydpi="819.20001"
   xmlns:inkscape="http://www.inkscape.org/namespaces/inkscape"
   xmlns:sodipodi="http://sodipodi.sourceforge.net/DTD/sodipodi-0.dtd"
   xmlns:xlink="http://www.w3.org/1999/xlink"
   xmlns="http://www.w3.org/2000/svg"
   xmlns:svg="http://www.w3.org/2000/svg"><defs
     id="defs1"><linearGradient
       id="linearGradient33"
       inkscape:collect="always"><stop
         style="stop-color:#434243;stop-opacity:1;"
         offset="0"
         id="stop33" /><stop
         style="stop-color:#060506;stop-opacity:1;"
         offset="1"
         id="stop34" /></linearGradient><linearGradient
       id="linearGradient31"
       inkscape:collect="always"><stop
         style="stop-color:#444243;stop-opacity:1;"
         offset="0"
         id="stop31" /><stop
         style="stop-color:#050505;stop-opacity:1;"
         offset="1"
         id="stop32" /></linearGradient><linearGradient
       id="linearGradient29"
       inkscape:collect="always"><stop
         style="stop-color:#454344;stop-opacity:1;"
         offset="0"
         id="stop29" /><stop
         style="stop-color:#090909;stop-opacity:1;"
         offset="1"
         id="stop30" /></linearGradient><linearGradient
       id="linearGradient27"
       inkscape:collect="always"><stop
         style="stop-color:#464445;stop-opacity:1;"
         offset="0"
         id="stop27" /><stop
         style="stop-color:#0a0a0a;stop-opacity:1;"
         offset="1"
         id="stop28" /></linearGradient><linearGradient
       id="linearGradient24"
       inkscape:collect="always"><stop
         style="stop-color:#454344;stop-opacity:1;"
         offset="0"
         id="stop24" /><stop
         style="stop-color:#111111;stop-opacity:1;"
         offset="1"
         id="stop25" /></linearGradient><linearGradient
       id="linearGradient21"
       inkscape:collect="always"><stop
         style="stop-color:#474546;stop-opacity:1;"
         offset="0"
         id="stop21" /><stop
         style="stop-color:#080808;stop-opacity:1;"
         offset="1"
         id="stop22" /></linearGradient><linearGradient
       id="_Linear2"
       x1="0"
       y1="0"
       x2="1"
       y2="0"
       gradientUnits="userSpaceOnUse"
       gradientTransform="matrix(0,48.2549,-48.2549,0,231.618,118.208)"><stop
         offset="0%"
         style="stop-color:rgb(73,71,72);stop-opacity:1"
         id="stop8" /><stop
         offset="0%"
         style="stop-color:rgb(73,71,72);stop-opacity:1"
         id="stop9" /><stop
         offset="100%"
         style="stop-color:black;stop-opacity:1"
         id="stop10" /></linearGradient><linearGradient
       id="_Linear3"
       x1="0"
       y1="0"
       x2="1"
       y2="0"
       gradientUnits="userSpaceOnUse"
       gradientTransform="matrix(0,49.7919,-49.7919,0,45.9897,117.439)"><stop
         offset="0%"
         style="stop-color:rgb(73,71,72);stop-opacity:1"
         id="stop11" /><stop
         offset="0%"
         style="stop-color:rgb(73,71,72);stop-opacity:1"
         id="stop12" /><stop
         offset="100%"
         style="stop-color:black;stop-opacity:1"
         id="stop13" /></linearGradient><linearGradient
       id="_Linear4"
       x1="0"
       y1="0"
       x2="1"
       y2="0"
       gradientUnits="userSpaceOnUse"
       gradientTransform="matrix(0,49.5634,-49.5634,0,313.285,117.719)"><stop
         offset="0%"
         style="stop-color:rgb(73,71,72);stop-opacity:1"
         id="stop14" /><stop
         offset="0%"
         style="stop-color:rgb(73,71,72);stop-opacity:1"
         id="stop15" /><stop
         offset="100%"
         style="stop-color:black;stop-opacity:1"
         id="stop16" /></linearGradient><linearGradient
       id="_Linear5"
       x1="0"
       y1="0"
       x2="1"
       y2="0"
       gradientUnits="userSpaceOnUse"
       gradientTransform="matrix(0,88.9072,-88.9072,0,131.199,117.579)"><stop
         offset="0%"
         style="stop-color:rgb(73,71,72);stop-opacity:1"
         id="stop17" /><stop
         offset="0%"
         style="stop-color:rgb(73,71,72);stop-opacity:1"
         id="stop18" /><stop
         offset="100%"
         style="stop-color:black;stop-opacity:1"
         id="stop19" /></linearGradient><linearGradient
       inkscape:collect="always"
       xlink:href="#linearGradient21"
       id="linearGradient20"
       x1="85.493027"
       y1="107.23618"
       x2="47.430016"
       y2="159.73979"
       gradientUnits="userSpaceOnUse" /><linearGradient
       inkscape:collect="always"
       xlink:href="#linearGradient21"
       id="linearGradient22"
       x1="152.74756"
       y1="90.268875"
       x2="104.83708"
       y2="161.27939"
       gradientUnits="userSpaceOnUse" /><linearGradient
       inkscape:collect="always"
       xlink:href="#linearGradient24"
       id="linearGradient25"
       x1="208.53099"
       y1="91.856384"
       x2="170.58093"
       y2="158.41898"
       gradientUnits="userSpaceOnUse" /><linearGradient
       inkscape:collect="always"
       xlink:href="#linearGradient27"
       id="linearGradient28"
       x1="247.16783"
       y1="125.09132"
       x2="233.85489"
       y2="202.95941"
       gradientUnits="userSpaceOnUse" /><linearGradient
       inkscape:collect="always"
       xlink:href="#linearGradient29"
       id="linearGradient30"
       x1="283.84119"
       y1="125.34251"
       x2="271.03064"
       y2="184.37154"
       gradientUnits="userSpaceOnUse" /><linearGradient
       inkscape:collect="always"
       xlink:href="#linearGradient31"
       id="linearGradient32"
       x1="320.77448"
       y1="126.64043"
       x2="309.05182"
       y2="161.1868"
       gradientUnits="userSpaceOnUse" /><linearGradient
       inkscape:collect="always"
       xlink:href="#linearGradient33"
       id="linearGradient34"
       x1="357.6275"
       y1="126.97522"
       x2="346.19846"
       y2="141.29291"
       gradientUnits="userSpaceOnUse" /></defs><sodipodi:namedview
     id="namedview1"
     pagecolor="#ffffff"
     bordercolor="#000000"
     borderopacity="0.25"
     inkscape:showpageshadow="2"
     inkscape:pageopacity="0.0"
     inkscape:pagecheckerboard="0"
     inkscape:deskcolor="#d1d1d1"
     inkscape:zoom="16"
     inkscape:cx="18.09375"
     inkscape:cy="23.25"
     inkscape:window-width="1672"
     inkscape:window-height="950"
     inkscape:window-x="50"
     inkscape:window-y="33"
     inkscape:window-maximized="0"
     inkscape:current-layer="svg1" /><path
     d="m 237.69,-100 c -15.68667,0 -29.22333,-5.69333 -40.61,-17.08 C 185.69333,-128.46667 180,-142.00333 180,-157.69 v -644.62 c 0,-15.68667 5.69333,-29.22333 17.08,-40.61 11.38667,-11.38667 24.92333,-17.08 40.61,-17.08 H 585.23 L 780,-665.23 v 507.54 c 0,15.68667 -5.69333,29.22333 -17.08,40.61 -11.38667,11.38667 -24.92333,17.08 -40.61,17.08 z M 562.54,-644.77 V -814.61 H 237.69 c -3.07333,0 -5.89333,1.28 -8.46,3.84 -2.56,2.56667 -3.84,5.38667 -3.84,8.46 v 644.62 c 0,3.07333 1.28,5.89333 3.84,8.46 2.56667,2.56 5.38667,3.84 8.46,3.84 h 484.62 c 3.07333,0 5.89333,-1.28 8.46,-3.84 2.56,-2.56667 3.84,-5.38667 3.84,-8.46 v -487.08 c -65.24678,5.26008 -120.07899,3.57711 -172.07,0 z M 225.39,-814.61 v 169.84 -169.84 669.22 z"
     id="path1"
     sodipodi:nodetypes="ssssssccssssccscsscsscsccccccc" /><path
     style="fill:#454344;stroke-width:1.18081"
     d="m 327.21902,-454.75826 c -8.67942,-1.386 -20.82226,-5.87842 -29.14992,-10.7842 -9.41336,-5.54536 -23.71188,-20.07002 -29.72482,-30.19494 -16.51428,-27.8076 -16.95202,-64.04278 -1.1004,-91.08834 5.9727,-10.19044 23.5213,-27.13586 33.44182,-32.29232 27.39902,-14.24146 61.31846,-12.82076 86.19926,3.61042 4.54612,3.00224 8.6642,5.63622 9.15128,5.8533 0.487,0.217 0.8856,-40.56474 0.8856,-90.62624 v -91.02092 h 73.21032 73.21034 v 27.74908 27.74908 h -56.05202 -56.052 l -0.3548,104.79704 c -0.3982,117.59698 0.184,109.62208 -9.41992,129.0037 -4.05164,8.17652 -7.06064,12.12558 -16.2337,21.3055 -12.63448,12.64392 -23.479,19.17334 -39.04158,23.5067 -10.07486,2.8053 -29.17016,3.99708 -38.96942,2.43214 z"
     id="path2" /><path
     style="fill:#454344;stroke-width:0.0590406"
     d="M 11.306273,42.917109 C 10.232134,42.708883 9.2423232,41.667944 9.0657808,40.560886 8.980653,40.027068 8.980653,7.9729322 9.0657808,7.4391144 9.1538473,6.886869 9.4020781,6.4007019 9.8290076,5.9443129 10.24328,5.5014543 10.812947,5.1785993 11.358612,5.0774193 c 0.202637,-0.037574 3.501528,-0.058969 9.092384,-0.058969 h 8.774363 l 4.885476,4.8857414 4.885475,4.8857413 -4.46e-4,12.693595 c -2.98e-4,8.472493 -0.0208,12.82121 -0.06164,13.077358 -0.08807,0.552245 -0.336297,1.038412 -0.763227,1.494801 -0.414272,0.442859 -0.983939,0.765713 -1.529604,0.866894 -0.399658,0.07411 -24.951963,0.0688 -25.335115,-0.0055 z m 25.224161,-2.351378 0.192813,-0.172276 0.01517,-12.314809 0.01517,-12.314808 H 32.443218 28.132841 V 11.512915 7.2619926 H 19.897611 11.66238 L 11.469566,7.4342714 11.276753,7.6065501 V 24 40.39345 l 0.192813,0.172279 0.192814,0.172278 H 24 36.337621 Z"
     id="path3"
     transform="matrix(20,0,0,20,0,-960)" /><g
     id="layer2"
     inkscape:label="Layer 2"
     transform="matrix(1.421733,0,0,1.421733,175.04404,-471.21546)"><path
       style="fill:url(#linearGradient20);fill-opacity:1;stroke-width:0.264584"
       d="m 42.772863,109.31583 15.215648,22.93703 -16.709705,25.41672 13.677827,0.16149 11.189814,-17.86307 10.6397,17.92037 15.625433,-0.0845 -16.563129,-25.44156 14.446739,-22.98913 -13.509043,-0.224 -9.314427,15.65949 -9.595734,-15.65949 z"
       id="path1-4"
       inkscape:label="x"
       sodipodi:nodetypes="ccccccccccccc" /><path
       style="fill:url(#linearGradient22);fill-opacity:1;stroke-width:0.264584"
       d="m 100.99431,91.977063 v 65.802947 l 13.22154,0.0838 0.0823,-28.79451 26.28765,-0.24383 0.32002,28.79451 13.1484,0.0762 0.15544,-65.802942 H 140.5858 l 0.24687,26.295272 -26.36994,0.0762 0.10264,-26.311838 z"
       id="path2-7"
       sodipodi:nodetypes="ccccccccccccc"
       inkscape:label="H" /><path
       style="fill:url(#linearGradient25);fill-opacity:1;stroke-width:0.264584"
       d="m 169.86479,92.036653 0.0249,65.595117 39.28245,-0.0503 V 147.4961 h -26.17493 v -18.69955 h 23.78516 v -10.15926 h -23.79058 v -16.51593 h 25.86902 v -9.944951 z"
       id="path3-9"
       inkscape:label="E" /><path
       style="display:inline;fill:url(#linearGradient28);fill-opacity:1;stroke-width:0.264584"
       d="m 235.53041,127.67943 h 10.09779 v 64.19197 l -10.09598,5.82892 z"
       id="path4"
       sodipodi:nodetypes="ccccc" /><path
       style="fill:url(#linearGradient30);fill-opacity:1;stroke-width:0.264584"
       d="m 272.51786,127.66402 10.18464,0.001 v 45.10013 l -10.18142,5.87824 z"
       id="path5"
       sodipodi:nodetypes="ccccc" /><path
       style="fill:url(#linearGradient32);fill-opacity:1;stroke-width:0.264584"
       d="m 309.59307,127.67404 h 10.41031 v 25.99613 l -10.4105,6.0105 z"
       id="path6"
       sodipodi:nodetypes="ccccc" /><path
       style="display:inline;fill:url(#linearGradient34);fill-opacity:1;stroke-width:0.264584"
       d="m 346.85062,127.61804 h 10.27822 v 6.80536 l -10.27696,5.93339 z"
       id="path7"
       sodipodi:nodetypes="ccccc" /><g
       id="path3716"
       transform="matrix(0.49366852,0,0,0.49366852,212.40542,15.350723)"
       style="clip-rule:evenodd;fill-rule:evenodd;stroke-linejoin:round;stroke-miterlimit:1.41421">
        <path
   d="m 271.531,141.499 c -2.511,7.718 -8.23,13.807 -17.156,18.27 -8.926,4.463 -20.223,6.694 -33.891,6.694 -13.484,0 -23.292,-2.208 -29.43,-6.626 -6.136,-4.415 -7.904,-10.528 -5.299,-18.338 l 7.53,-23.291 h 25.663 l -7.252,23.151 c -0.931,2.883 -1.232,5.278 -0.906,7.183 0.326,1.907 1.046,3.417 2.162,4.533 1.394,1.113 2.95,1.88 4.672,2.299 1.72,0.419 3.788,0.629 6.207,0.629 2.417,0 4.742,-0.255 6.974,-0.769 2.231,-0.51 4.275,-1.323 6.138,-2.438 1.858,-1.116 3.508,-2.602 4.951,-4.463 1.44,-1.859 2.626,-4.186 3.557,-6.974 l 7.532,-23.151 h 25.663 z"
   style="fill:url(#_Linear2);fill-rule:nonzero"
   id="path2-4" />
    </g><g
       id="path3723"
       transform="matrix(0.49366852,0,0,0.49366852,212.40542,15.350723)"
       style="clip-rule:evenodd;fill-rule:evenodd;stroke-linejoin:round;stroke-miterlimit:1.41421">
        <path
   d="m 88.875,142.404 c 2.51,-7.717 0.743,-13.808 -5.301,-18.271 -6.044,-4.463 -15.899,-6.694 -29.567,-6.694 -13.483,0 -24.686,2.21 -33.611,6.625 -8.928,4.417 -14.693,10.53 -17.295,18.34 -2.51,7.72 -0.722,13.786 5.37,18.201 6.089,4.418 15.922,6.626 29.498,6.626 13.575,0 24.826,-2.208 33.753,-6.626 8.924,-4.415 14.642,-10.481 17.153,-18.201 z m -26.082,0.14 c -0.931,2.978 -2.069,5.3 -3.417,6.974 -1.349,1.675 -3.046,3.116 -5.09,4.323 -1.768,1.116 -3.765,1.883 -5.997,2.302 -2.232,0.419 -4.463,0.627 -6.696,0.627 -2.697,0 -4.999,-0.23 -6.903,-0.696 -1.907,-0.465 -3.417,-1.256 -4.533,-2.371 -1.21,-1.116 -1.906,-2.626 -2.092,-4.533 -0.188,-1.904 0.14,-4.114 0.977,-6.625 0.929,-2.88 2.161,-5.275 3.696,-7.183 1.534,-1.904 3.229,-3.417 5.09,-4.533 2.138,-1.115 4.206,-1.882 6.207,-2.301 1.999,-0.419 4.207,-0.627 6.625,-0.627 2.416,0 4.603,0.257 6.555,0.767 1.953,0.512 3.486,1.325 4.603,2.44 1.115,1.116 1.789,2.605 2.021,4.463 0.231,1.86 -0.117,4.185 -1.046,6.973 z"
   style="fill:url(#_Linear3);fill-rule:nonzero"
   id="path3-7" />
    </g><g
       id="path3730"
       transform="matrix(0.49366852,0,0,0.49366852,212.40542,15.350723)"
       style="clip-rule:evenodd;fill-rule:evenodd;stroke-linejoin:round;stroke-miterlimit:1.41421">
        <path
   d="m 312.14,128.807 c 2.928,-0.698 9.041,-1.046 18.339,-1.046 4.833,0 9.506,0.487 14.018,1.465 4.508,0.976 9.042,2.209 13.598,3.696 L 362,121.066 c -2.698,-0.744 -6.625,-1.487 -11.787,-2.231 -5.159,-0.744 -10.669,-1.116 -16.526,-1.116 -17.574,0 -30.405,1.513 -38.493,4.533 -8.089,3.022 -12.879,6.812 -14.366,11.366 -1.115,3.44 -0.348,6.346 2.302,8.717 2.65,2.371 7.322,4.115 14.016,5.229 2.511,0.467 6.624,0.838 12.343,1.117 5.718,0.279 9.46,0.557 11.228,0.836 3.717,0.373 6.205,0.837 7.461,1.396 1.254,0.558 1.695,1.394 1.325,2.511 -0.467,1.303 -1.976,2.279 -4.533,2.928 -2.559,0.652 -6.3,0.977 -11.227,0.977 -0.77,0 -1.513,-0.003 -2.241,-0.007 -1.846,-0.101 -3.858,-0.272 -5.791,-0.476 -2.06,-0.22 -4.118,-0.485 -6.162,-0.795 -4.089,-0.62 -8.132,-1.419 -12.058,-2.439 -3.921,-1.022 -7.734,-2.267 -11.26,-3.813 -0.474,-0.208 -0.932,-0.433 -1.394,-0.654 -2.476,3.979 -5.905,7.451 -10.27,10.396 2.259,1.085 4.539,1.976 6.807,2.742 4.52,1.506 9.034,2.52 13.525,3.266 4.494,0.741 8.969,1.203 13.431,1.472 2.231,0.133 4.459,0.215 6.691,0.248 1.966,0.026 3.882,0.02 5.902,-0.045 12.216,-0.072 22.318,-1.53 30.294,-4.386 8.18,-2.929 13.062,-6.81 14.644,-11.645 1.116,-3.349 0.441,-6.138 -2.021,-8.369 -2.466,-2.231 -6.813,-3.857 -13.041,-4.882 -2.883,-0.371 -5.768,-0.719 -8.647,-1.046 -2.884,-0.324 -5.533,-0.628 -7.951,-0.906 -9.577,-0.65 -14.924,-1.255 -16.039,-1.813 -1.116,-0.558 -1.488,-1.394 -1.116,-2.511 0.467,-1.209 2.164,-2.163 5.094,-2.859 z"
   style="fill:url(#_Linear4);fill-rule:nonzero"
   id="path4-6" />
    </g><g
       id="path3737"
       transform="matrix(0.49366852,0,0,0.49366852,212.40542,15.350723)"
       style="clip-rule:evenodd;fill-rule:evenodd;stroke-linejoin:round;stroke-miterlimit:1.41421">
        <path
   d="m 174.838,124.204 c -6.091,-4.415 -15.924,-6.625 -29.499,-6.625 -13.577,0 -24.826,2.21 -33.751,6.625 -8.926,4.417 -14.4,10.415 -16.911,18.131 l -0.105,0.349 -12.692,39.19 c -5.26,17.631 17.526,24.612 17.526,24.612 l 7.58,-24.612 0.656,-2.106 c 0.592,-1.982 1.192,-3.964 1.781,-5.948 l 1.686,-5.531 c 0.603,-1.832 1.207,-3.662 1.85,-5.481 l 3.979,-10.875 1.993,-5.436 1.429,-3.718 c 0.051,-0.172 0.099,-0.339 0.155,-0.514 0.836,-2.509 1.953,-4.718 3.347,-6.624 1.396,-1.904 3.069,-3.417 5.021,-4.533 1.859,-1.115 3.882,-1.904 6.067,-2.371 2.183,-0.464 4.625,-0.696 7.322,-0.696 2.231,0 4.325,0.208 6.277,0.627 1.952,0.419 3.438,1.186 4.463,2.301 1.301,1.209 2.068,2.65 2.3,4.323 0.231,1.675 -0.117,3.999 -1.046,6.974 -0.931,2.79 -2.116,5.116 -3.557,6.974 -1.442,1.862 -3.091,3.348 -4.951,4.464 -1.861,1.115 -3.905,1.931 -6.136,2.44 -2.231,0.512 -4.558,0.767 -6.973,0.767 -2.419,0 -4.487,-0.208 -6.207,-0.627 -1.721,-0.419 -3.326,-1.186 -4.812,-2.302 -0.112,-0.112 -0.201,-0.247 -0.305,-0.366 l -3.674,10.658 c -0.206,0.613 -0.403,1.228 -0.601,1.842 3.479,0.708 7.507,1.13 12.111,1.256 13.668,0 24.965,-2.231 33.893,-6.694 8.926,-4.464 14.643,-10.552 17.154,-18.271 2.511,-7.719 0.718,-13.786 -5.37,-18.203 z"
   style="fill:url(#_Linear5);fill-rule:nonzero"
   id="path5-0" />
    </g></g></svg>
